<svg width="175" height="100" viewBox="0 0 175 100" fill="none" xmlns="http://www.w3.org/2000/svg">
<path d="M15.0299 95.696L0.6875 98H173.551V2L152.415 9.68L137.318 39.632L98.8199 47.312L85.9872 75.728L55.7926 82.64L29.3723 75.728L15.0299 95.696Z" fill="url(#paint0_linear_23162_44177)"/>
<path d="M0.6875 98L13.3866 95.96C14.4384 95.791 15.3794 95.2094 16.0009 94.3441L27.7694 77.9597C28.7351 76.6152 30.4291 76.0045 32.0306 76.4234L54.8437 82.3918C55.4671 82.5548 56.1206 82.5649 56.7487 82.4211L84.0515 76.1711C85.271 75.892 86.2896 75.0584 86.8045 73.9183L97.9735 49.1861C98.5047 48.0099 99.5708 47.1622 100.836 46.9097L135.406 40.0134C136.613 39.7727 137.642 38.9899 138.195 37.8911L151.701 11.0971C152.16 10.1869 152.949 9.48615 153.907 9.13803L173.551 2" stroke="#FFC728" stroke-width="3"/>
<defs>
<linearGradient id="paint0_linear_23162_44177" x1="70.8899" y1="13.52" x2="87.6675" y2="97.891" gradientUnits="userSpaceOnUse">
<stop stop-color="#FFC728" stop-opacity="0.46"/>
<stop offset="1" stop-color="#FFC728" stop-opacity="0"/>
</linearGradient>
</defs>
</svg>
