<svg width="109" height="96" viewBox="0 0 109 96" fill="none" xmlns="http://www.w3.org/2000/svg">
<path d="M57.0977 0C58.5977 0 60.0977 1.5 60.0977 3V33C60.0977 34.6875 58.5977 36 57.0977 36C55.4102 36 54.0977 34.6875 54.0977 33V10.3125L5.16016 59.25C4.03516 60.375 1.97266 60.375 0.847656 59.25C-0.277344 58.125 -0.277344 56.0625 0.847656 54.9375L49.7852 6H27.0977C25.4102 6 24.0977 4.6875 24.0977 3C24.0977 1.5 25.4102 0 27.0977 0H57.0977ZM90.0977 15C90.0977 10.125 94.0352 6 99.0977 6C103.973 6 108.098 10.125 108.098 15C108.098 20.0625 103.973 24 99.0977 24C94.0352 24 90.0977 20.0625 90.0977 15ZM99.0977 18C100.598 18 102.098 16.6875 102.098 15C102.098 13.5 100.598 12 99.0977 12C97.4102 12 96.0977 13.5 96.0977 15C96.0977 16.6875 97.4102 18 99.0977 18ZM66.0977 39C66.0977 34.125 70.0352 30 75.0977 30C79.9727 30 84.0977 34.125 84.0977 39C84.0977 44.0625 79.9727 48 75.0977 48C70.0352 48 66.0977 44.0625 66.0977 39ZM75.0977 42C76.5977 42 78.0977 40.6875 78.0977 39C78.0977 37.5 76.5977 36 75.0977 36C73.4102 36 72.0977 37.5 72.0977 39C72.0977 40.6875 73.4102 42 75.0977 42ZM84.0977 63C84.0977 68.0625 79.9727 72 75.0977 72C70.0352 72 66.0977 68.0625 66.0977 63C66.0977 58.125 70.0352 54 75.0977 54C79.9727 54 84.0977 58.125 84.0977 63ZM75.0977 60C73.4102 60 72.0977 61.5 72.0977 63C72.0977 64.6875 73.4102 66 75.0977 66C76.5977 66 78.0977 64.6875 78.0977 63C78.0977 61.5 76.5977 60 75.0977 60ZM66.0977 87C66.0977 82.125 70.0352 78 75.0977 78C79.9727 78 84.0977 82.125 84.0977 87C84.0977 92.0625 79.9727 96 75.0977 96C70.0352 96 66.0977 92.0625 66.0977 87ZM75.0977 90C76.5977 90 78.0977 88.6875 78.0977 87C78.0977 85.5 76.5977 84 75.0977 84C73.4102 84 72.0977 85.5 72.0977 87C72.0977 88.6875 73.4102 90 75.0977 90ZM90.0977 87C90.0977 82.125 94.0352 78 99.0977 78C103.973 78 108.098 82.125 108.098 87C108.098 92.0625 103.973 96 99.0977 96C94.0352 96 90.0977 92.0625 90.0977 87ZM99.0977 90C100.598 90 102.098 88.6875 102.098 87C102.098 85.5 100.598 84 99.0977 84C97.4102 84 96.0977 85.5 96.0977 87C96.0977 88.6875 97.4102 90 99.0977 90ZM60.0977 63C60.0977 68.0625 55.9727 72 51.0977 72C46.0352 72 42.0977 68.0625 42.0977 63C42.0977 58.125 46.0352 54 51.0977 54C55.9727 54 60.0977 58.125 60.0977 63ZM51.0977 60C49.4102 60 48.0977 61.5 48.0977 63C48.0977 64.6875 49.4102 66 51.0977 66C52.5977 66 54.0977 64.6875 54.0977 63C54.0977 61.5 52.5977 60 51.0977 60ZM42.0977 87C42.0977 82.125 46.0352 78 51.0977 78C55.9727 78 60.0977 82.125 60.0977 87C60.0977 92.0625 55.9727 96 51.0977 96C46.0352 96 42.0977 92.0625 42.0977 87ZM51.0977 90C52.5977 90 54.0977 88.6875 54.0977 87C54.0977 85.5 52.5977 84 51.0977 84C49.4102 84 48.0977 85.5 48.0977 87C48.0977 88.6875 49.4102 90 51.0977 90ZM36.0977 87C36.0977 92.0625 31.9727 96 27.0977 96C22.0352 96 18.0977 92.0625 18.0977 87C18.0977 82.125 22.0352 78 27.0977 78C31.9727 78 36.0977 82.125 36.0977 87ZM27.0977 84C25.4102 84 24.0977 85.5 24.0977 87C24.0977 88.6875 25.4102 90 27.0977 90C28.5977 90 30.0977 88.6875 30.0977 87C30.0977 85.5 28.5977 84 27.0977 84ZM90.0977 63C90.0977 58.125 94.0352 54 99.0977 54C103.973 54 108.098 58.125 108.098 63C108.098 68.0625 103.973 72 99.0977 72C94.0352 72 90.0977 68.0625 90.0977 63ZM99.0977 66C100.598 66 102.098 64.6875 102.098 63C102.098 61.5 100.598 60 99.0977 60C97.4102 60 96.0977 61.5 96.0977 63C96.0977 64.6875 97.4102 66 99.0977 66ZM108.098 39C108.098 44.0625 103.973 48 99.0977 48C94.0352 48 90.0977 44.0625 90.0977 39C90.0977 34.125 94.0352 30 99.0977 30C103.973 30 108.098 34.125 108.098 39ZM99.0977 36C97.4102 36 96.0977 37.5 96.0977 39C96.0977 40.6875 97.4102 42 99.0977 42C100.598 42 102.098 40.6875 102.098 39C102.098 37.5 100.598 36 99.0977 36Z" fill="url(#paint0_linear_23162_44243)"/>
<defs>
<linearGradient id="paint0_linear_23162_44243" x1="101" y1="5.00001" x2="9.00001" y2="96" gradientUnits="userSpaceOnUse">
<stop stop-color="#FA536E"/>
<stop offset="0.926301" stop-color="#FA536E" stop-opacity="0"/>
</linearGradient>
</defs>
</svg>
